<svg width="62" height="443" viewBox="0 0 62 443" fill="none" xmlns="http://www.w3.org/2000/svg">
<path d="M56.064 66.12C53.952 67.656 51.264 68.712 48 69.288C44.736 69.928 41.28 70.248 37.632 70.248C33.344 70.248 29.248 69.576 25.344 68.232C21.504 66.824 18.112 64.712 15.168 61.896C12.224 59.016 9.888 55.4 8.16 51.048C6.432 46.632 5.568 41.416 5.568 35.4C5.568 29.128 6.528 23.784 8.448 19.368C10.368 14.952 12.864 11.368 15.936 8.616C19.008 5.8 22.464 3.752 26.304 2.472C30.144 1.192 33.952 0.551994 37.728 0.551994C41.952 0.551994 45.408 0.775995 48.096 1.224C50.784 1.672 53.056 2.248 54.912 2.952L52.8 11.208C49.664 9.736 44.896 9 38.496 9C35.616 9 32.8 9.48 30.048 10.44C27.36 11.336 24.928 12.84 22.752 14.952C20.64 17 18.944 19.72 17.664 23.112C16.384 26.44 15.744 30.536 15.744 35.4C15.744 39.752 16.352 43.592 17.568 46.92C18.784 50.184 20.448 52.936 22.56 55.176C24.736 57.352 27.264 59.016 30.144 60.168C33.088 61.256 36.288 61.8 39.744 61.8C42.88 61.8 45.6 61.512 47.904 60.936C50.208 60.36 52.16 59.624 53.76 58.728L56.064 66.12ZM43.872 175.432H17.28L10.176 193H0.768L28.416 124.84H33.408L61.152 193H51.168L43.872 175.432ZM20.16 167.368H41.088L33.312 148.264L30.72 137.992H30.528L27.936 148.456L20.16 167.368ZM8.544 250.472C9.888 250.216 11.36 249.992 12.96 249.8C14.624 249.608 16.288 249.448 17.952 249.32C19.616 249.192 21.28 249.096 22.944 249.032C24.608 248.968 26.176 248.936 27.648 248.936C30.848 248.936 33.92 249.256 36.864 249.896C39.872 250.536 42.496 251.592 44.736 253.064C47.04 254.536 48.864 256.456 50.208 258.824C51.616 261.192 52.32 264.104 52.32 267.56C52.32 270.248 51.904 272.68 51.072 274.856C50.24 277.032 49.088 278.952 47.616 280.616C46.144 282.28 44.384 283.688 42.336 284.84C40.352 285.928 38.176 286.76 35.808 287.336L40.8 290.696L58.848 317H47.808L27.84 288.68L18.144 287.336V317H8.544V250.472ZM27.936 257.192C27.04 257.192 26.112 257.192 25.152 257.192C24.256 257.192 23.36 257.224 22.464 257.288C21.568 257.352 20.736 257.416 19.968 257.48C19.2 257.544 18.592 257.64 18.144 257.768V281H26.016C28.32 281 30.432 280.776 32.352 280.328C34.336 279.816 36.032 279.08 37.44 278.12C38.912 277.096 40.064 275.784 40.896 274.184C41.728 272.584 42.144 270.632 42.144 268.328C42.144 264.872 40.928 262.152 38.496 260.168C36.064 258.184 32.544 257.192 27.936 257.192ZM41.568 423.336C41.568 420.712 40.704 418.632 38.976 417.096C37.248 415.56 35.072 414.248 32.448 413.16C29.824 412.008 27.008 410.952 24 409.992C20.992 408.968 18.176 407.688 15.552 406.152C12.928 404.616 10.752 402.632 9.024 400.2C7.296 397.768 6.432 394.6 6.432 390.696C6.432 385.256 8.416 380.872 12.384 377.544C16.416 374.216 22.144 372.552 29.568 372.552C33.856 372.552 37.792 372.872 41.376 373.512C44.96 374.152 47.776 374.984 49.824 376.008L46.848 384.072C45.248 383.24 42.848 382.504 39.648 381.864C36.448 381.16 32.928 380.808 29.088 380.808C24.736 380.808 21.472 381.736 19.296 383.592C17.12 385.448 16.032 387.592 16.032 390.024C16.032 392.52 16.896 394.536 18.624 396.072C20.352 397.608 22.528 398.984 25.152 400.2C27.776 401.352 30.592 402.472 33.6 403.56C36.608 404.648 39.424 405.992 42.048 407.592C44.672 409.192 46.848 411.176 48.576 413.544C50.304 415.848 51.168 418.824 51.168 422.472C51.168 425.48 50.592 428.2 49.44 430.632C48.288 433.064 46.624 435.144 44.448 436.872C42.272 438.6 39.648 439.944 36.576 440.904C33.504 441.8 30.016 442.248 26.112 442.248C20.864 442.248 16.416 441.832 12.768 441C9.184 440.232 6.464 439.4 4.608 438.504L7.776 430.152C9.376 430.984 11.776 431.848 14.976 432.744C18.24 433.576 21.824 433.992 25.728 433.992C27.968 433.992 30.048 433.8 31.968 433.416C33.888 432.968 35.552 432.328 36.96 431.496C38.432 430.6 39.552 429.48 40.32 428.136C41.152 426.792 41.568 425.192 41.568 423.336Z" fill="black"/>
</svg>
