<svg width="61" height="565" viewBox="0 0 61 565" fill="none" xmlns="http://www.w3.org/2000/svg">
<path d="M6.544 2.472C9.232 1.896 12.144 1.512 15.28 1.32C18.48 1.064 21.616 0.935995 24.688 0.935995C27.952 0.935995 31.248 1.224 34.576 1.8C37.968 2.376 41.04 3.432 43.792 4.96799C46.544 6.504 48.784 8.648 50.512 11.4C52.304 14.088 53.2 17.576 53.2 21.864C53.2 25.896 52.4 29.352 50.8 32.232C49.2 35.048 47.056 37.352 44.368 39.144C41.744 40.936 38.704 42.248 35.248 43.08C31.856 43.912 28.336 44.328 24.688 44.328C24.304 44.328 23.696 44.328 22.864 44.328C22.096 44.264 21.264 44.232 20.368 44.232C19.536 44.168 18.704 44.104 17.872 44.04C17.104 43.976 16.528 43.912 16.144 43.848V69H6.544V2.472ZM24.976 9.192C23.248 9.192 21.552 9.224 19.888 9.288C18.288 9.352 17.04 9.512 16.144 9.768V35.592C16.464 35.72 16.976 35.816 17.68 35.88C18.448 35.88 19.216 35.912 19.984 35.976C20.816 36.04 21.584 36.072 22.288 36.072C23.056 36.072 23.632 36.072 24.016 36.072C26.32 36.072 28.592 35.912 30.832 35.592C33.072 35.208 35.088 34.504 36.88 33.48C38.736 32.456 40.208 31.016 41.296 29.16C42.448 27.304 43.024 24.904 43.024 21.96C43.024 19.4 42.48 17.288 41.392 15.624C40.304 13.96 38.896 12.648 37.168 11.688C35.44 10.728 33.488 10.088 31.312 9.768C29.2 9.384 27.088 9.192 24.976 9.192ZM12.304 132.136H4.624V125.8H29.584V132.136H21.904V186.664H29.584V193H4.624V186.664H12.304V132.136ZM24.88 282.824L2.704 249.8H14.128L28.624 271.88L31.216 277.448L33.712 271.88L48.88 249.8H59.44L36.592 282.152L60.496 317H49.264L33.232 293.576L30.256 287.72L27.568 293.576L11.152 317H0.592L24.88 282.824ZM6.544 373.8H47.152V382.056H16.144V402.504H44.464V410.76H16.144V432.744H47.632V441H6.544V373.8ZM50.512 565H6.544V497.8H16.144V556.552H50.512V565Z" fill="black"/>
</svg>
